<svg xmlns="http://www.w3.org/2000/svg" width="38.7" height="76.5" viewBox="0 0 38.7 76.5"><path fill="#b4fff4" d="M35.3 56.6l-5.7-9.3a40.1 40.1 0 0 0 1.9-11.5v-1.6c-.6-10.4-4.6-14.1-7.6-17.1a12.8 12.8 0 0 1-3.3-4.4h-.1a2.2 2.2 0 0 0 1.3-.4 1.7 1.7 0 0 0 .9-1.6l-.2-.3a3.9 3.9 0 0 0-2.1-.5 6.7 6.7 0 0 1 0-2c0-.3 0-.3.5-.4h.1c.4-.1.6-.2.7-.4a1.1 1.1 0 0 0-.3-1.1v-.4a13.8 13.8 0 0 1-1.2-4.2c0-1-.2-1.2-.4-1.3h-.5c-.1 0-.5.2-.5 1.3a13.3 13.3 0 0 1-1.2 4.2v.2h-.1a1.9 1.9 0 0 0-.3.8.4.4 0 0 0 .1.3c.1.2.2.3.6.4h.1c.5.1.5.1.5.4a5.7 5.7 0 0 1 0 1.3v.8c-1.2.1-1.9.2-2.2.5v.3a1.8 1.8 0 0 0 .8 1.6 2.5 2.5 0 0 0 1.3.4h-.1a13.1 13.1 0 0 1-3.4 4.5c-3 2.9-7 6.7-7.6 17v1.6a40.1 40.1 0 0 0 1.8 11.6l-5.7 9.3L0 76.5h3.9l3.6-12.6 6-5.1h.2l.7.2c.1.6.2 1.3.3 1.7s.2 1.1 3.1 1.3v14.5h3.1V62.1c3-.2 3.2-1 3.2-1.3s.2-1.1.3-1.7l.7-.2h.1l6 5.1 3.6 12.6h3.9z"/></svg>